<svg width="200" height="42" viewBox="0 0 200 42" fill="none" xmlns="http://www.w3.org/2000/svg">
<path d="M7 7H35V28H9.0475L7 30.0475V7ZM7 3.5C5.075 3.5 3.5175 5.075 3.5175 7L3.5 38.5L10.5 31.5H35C36.925 31.5 38.5 29.925 38.5 28V7C38.5 5.075 36.925 3.5 35 3.5H7ZM10.5 21H24.5V24.5H10.5V21ZM10.5 15.75H31.5V19.25H10.5V15.75ZM10.5 10.5H31.5V14H10.5V10.5Z" fill="#FF872C"/>
<path d="M73.6172 30.2461C72.3594 30.2461 71.2148 30.1055 70.1836 29.8242C69.1523 29.543 68.1367 29.0547 67.1367 28.3594V24.2344H69.7852L70.1484 26.6602C70.5 26.957 70.9844 27.1992 71.6016 27.3867C72.2188 27.5664 72.8906 27.6562 73.6172 27.6562C74.2344 27.6562 74.7539 27.5703 75.1758 27.3984C75.6055 27.2266 75.9297 26.9844 76.1484 26.6719C76.375 26.3516 76.4883 25.9766 76.4883 25.5469C76.4883 25.1406 76.3867 24.7812 76.1836 24.4688C75.9883 24.1484 75.6602 23.8594 75.1992 23.6016C74.7461 23.3359 74.1289 23.082 73.3477 22.8398C71.9961 22.4414 70.875 22.0078 69.9844 21.5391C69.1016 21.0625 68.4375 20.4961 67.9922 19.8398C67.5547 19.1758 67.3359 18.3789 67.3359 17.4492C67.3359 16.5273 67.5898 15.7148 68.0977 15.0117C68.6133 14.3008 69.3242 13.7422 70.2305 13.3359C71.1367 12.9297 72.1836 12.7188 73.3711 12.7031C74.6836 12.6875 75.8438 12.8438 76.8516 13.1719C77.8672 13.5 78.7422 13.957 79.4766 14.543V18.3867H76.9102L76.4648 16.043C76.168 15.8555 75.7656 15.6914 75.2578 15.5508C74.7578 15.4102 74.1875 15.3398 73.5469 15.3398C73 15.3398 72.5156 15.4219 72.0938 15.5859C71.6797 15.75 71.3516 15.9883 71.1094 16.3008C70.8672 16.6133 70.7461 16.9922 70.7461 17.4375C70.7461 17.8203 70.8516 18.1562 71.0625 18.4453C71.2734 18.7266 71.625 18.9961 72.1172 19.2539C72.6172 19.5039 73.3047 19.7734 74.1797 20.0625C76.0625 20.5859 77.4883 21.2773 78.457 22.1367C79.4336 22.9961 79.9219 24.125 79.9219 25.5234C79.9219 26.4922 79.6602 27.332 79.1367 28.043C78.6133 28.7461 77.8789 29.2891 76.9336 29.6719C75.9883 30.0547 74.8828 30.2461 73.6172 30.2461ZM81.2578 30V27.9492L82.9102 27.5977V19.7344L81.082 19.3828V17.3203H86.332V27.5977L87.9727 27.9492V30H81.2578ZM82.793 14.6367V11.7188H86.332V14.6367H82.793ZM88.9922 30V27.9492L90.6445 27.5977V19.7344L88.8164 19.3828V17.3203H93.8203L93.9609 18.9961C94.3672 18.3867 94.875 17.918 95.4844 17.5898C96.1016 17.2539 96.8125 17.0859 97.6172 17.0859C98.4297 17.0859 99.125 17.2656 99.7031 17.625C100.289 17.9844 100.727 18.5273 101.016 19.2539C101.406 18.5742 101.914 18.043 102.539 17.6602C103.164 17.2773 103.898 17.0859 104.742 17.0859C105.992 17.0859 106.977 17.5117 107.695 18.3633C108.422 19.2148 108.785 20.5117 108.785 22.2539V27.5977L110.438 27.9492V30H103.887V27.9492L105.363 27.5977V22.2422C105.363 21.3047 105.207 20.6562 104.895 20.2969C104.59 19.9297 104.145 19.7461 103.559 19.7461C103.027 19.7461 102.578 19.8984 102.211 20.2031C101.844 20.5 101.578 20.8945 101.414 21.3867V27.5977L102.797 27.9492V30H96.6211V27.9492L98.0039 27.5977V22.2422C98.0039 21.3281 97.8477 20.6836 97.5352 20.3086C97.2305 19.9336 96.7773 19.7461 96.1758 19.7461C95.6914 19.7461 95.2734 19.8438 94.9219 20.0391C94.5703 20.2344 94.2812 20.5156 94.0547 20.8828V27.5977L95.5312 27.9492V30H88.9922ZM111.516 34.875V32.8125L113.168 32.4609V19.7344L111.34 19.3828V17.3203H116.309L116.473 18.7969C116.848 18.25 117.301 17.8281 117.832 17.5312C118.363 17.2344 118.996 17.0859 119.73 17.0859C120.754 17.0859 121.629 17.3672 122.355 17.9297C123.082 18.4844 123.637 19.2617 124.02 20.2617C124.41 21.2617 124.605 22.4297 124.605 23.7656V24.0117C124.605 25.2617 124.41 26.3555 124.02 27.293C123.637 28.2227 123.078 28.9492 122.344 29.4727C121.617 29.9883 120.738 30.2461 119.707 30.2461C119.027 30.2461 118.426 30.125 117.902 29.8828C117.387 29.6328 116.945 29.2695 116.578 28.793V32.4609L118.23 32.8125V34.875H111.516ZM118.688 27.6211C119.562 27.6211 120.195 27.2969 120.586 26.6484C120.984 26 121.184 25.1211 121.184 24.0117V23.7656C121.184 22.9609 121.094 22.2617 120.914 21.668C120.734 21.0664 120.457 20.5977 120.082 20.2617C119.715 19.918 119.242 19.7461 118.664 19.7461C118.195 19.7461 117.781 19.8516 117.422 20.0625C117.07 20.2734 116.789 20.5742 116.578 20.9648V26.5195C116.789 26.8789 117.07 27.1523 117.422 27.3398C117.781 27.5273 118.203 27.6211 118.688 27.6211ZM125.707 30V27.9492L127.359 27.5977V14.1328L125.531 13.7812V11.7188H130.781V27.5977L132.434 27.9492V30H125.707ZM139.395 30.2461C138.184 30.2461 137.125 29.9805 136.219 29.4492C135.312 28.9102 134.609 28.1719 134.109 27.2344C133.617 26.2969 133.371 25.2266 133.371 24.0234V23.5547C133.371 22.2969 133.605 21.1836 134.074 20.2148C134.543 19.2383 135.203 18.4727 136.055 17.918C136.914 17.3555 137.926 17.0781 139.09 17.0859C140.238 17.0859 141.203 17.3125 141.984 17.7656C142.766 18.2188 143.359 18.8711 143.766 19.7227C144.172 20.5742 144.375 21.6055 144.375 22.8164V24.6797H136.922L136.898 24.75C136.945 25.3047 137.082 25.8008 137.309 26.2383C137.543 26.668 137.871 27.0078 138.293 27.2578C138.715 27.5 139.227 27.6211 139.828 27.6211C140.453 27.6211 141.035 27.543 141.574 27.3867C142.121 27.2227 142.652 26.9844 143.168 26.6719L144.094 28.7812C143.57 29.2031 142.91 29.5547 142.113 29.8359C141.324 30.1094 140.418 30.2461 139.395 30.2461ZM136.945 22.418H141.176V22.1133C141.176 21.5977 141.105 21.1562 140.965 20.7891C140.832 20.4141 140.613 20.125 140.309 19.9219C140.012 19.7188 139.625 19.6172 139.148 19.6172C138.695 19.6172 138.312 19.7383 138 19.9805C137.688 20.2148 137.441 20.5391 137.262 20.9531C137.09 21.3672 136.973 21.8359 136.91 22.3594L136.945 22.418ZM158.719 30.2461C157.461 30.2461 156.316 30.1055 155.285 29.8242C154.254 29.543 153.238 29.0547 152.238 28.3594V24.2344H154.887L155.25 26.6602C155.602 26.957 156.086 27.1992 156.703 27.3867C157.32 27.5664 157.992 27.6562 158.719 27.6562C159.336 27.6562 159.855 27.5703 160.277 27.3984C160.707 27.2266 161.031 26.9844 161.25 26.6719C161.477 26.3516 161.59 25.9766 161.59 25.5469C161.59 25.1406 161.488 24.7812 161.285 24.4688C161.09 24.1484 160.762 23.8594 160.301 23.6016C159.848 23.3359 159.23 23.082 158.449 22.8398C157.098 22.4414 155.977 22.0078 155.086 21.5391C154.203 21.0625 153.539 20.4961 153.094 19.8398C152.656 19.1758 152.438 18.3789 152.438 17.4492C152.438 16.5273 152.691 15.7148 153.199 15.0117C153.715 14.3008 154.426 13.7422 155.332 13.3359C156.238 12.9297 157.285 12.7188 158.473 12.7031C159.785 12.6875 160.945 12.8438 161.953 13.1719C162.969 13.5 163.844 13.957 164.578 14.543V18.3867H162.012L161.566 16.043C161.27 15.8555 160.867 15.6914 160.359 15.5508C159.859 15.4102 159.289 15.3398 158.648 15.3398C158.102 15.3398 157.617 15.4219 157.195 15.5859C156.781 15.75 156.453 15.9883 156.211 16.3008C155.969 16.6133 155.848 16.9922 155.848 17.4375C155.848 17.8203 155.953 18.1562 156.164 18.4453C156.375 18.7266 156.727 18.9961 157.219 19.2539C157.719 19.5039 158.406 19.7734 159.281 20.0625C161.164 20.5859 162.59 21.2773 163.559 22.1367C164.535 22.9961 165.023 24.125 165.023 25.5234C165.023 26.4922 164.762 27.332 164.238 28.043C163.715 28.7461 162.98 29.2891 162.035 29.6719C161.09 30.0547 159.984 30.2461 158.719 30.2461ZM166.383 30V27.9492L168.199 27.5977V15.3516L166.383 15V12.9375H168.199H171.668L179.098 24.7734L179.168 24.7617V15.3516L176.988 15V12.9375H182.227H184.055V15L182.227 15.3516V30H178.922L171.328 18.2812L171.258 18.293V27.5977L173.449 27.9492V30H166.383ZM192.141 30.2461C190.883 30.2461 189.738 30.1055 188.707 29.8242C187.676 29.543 186.66 29.0547 185.66 28.3594V24.2344H188.309L188.672 26.6602C189.023 26.957 189.508 27.1992 190.125 27.3867C190.742 27.5664 191.414 27.6562 192.141 27.6562C192.758 27.6562 193.277 27.5703 193.699 27.3984C194.129 27.2266 194.453 26.9844 194.672 26.6719C194.898 26.3516 195.012 25.9766 195.012 25.5469C195.012 25.1406 194.91 24.7812 194.707 24.4688C194.512 24.1484 194.184 23.8594 193.723 23.6016C193.27 23.3359 192.652 23.082 191.871 22.8398C190.52 22.4414 189.398 22.0078 188.508 21.5391C187.625 21.0625 186.961 20.4961 186.516 19.8398C186.078 19.1758 185.859 18.3789 185.859 17.4492C185.859 16.5273 186.113 15.7148 186.621 15.0117C187.137 14.3008 187.848 13.7422 188.754 13.3359C189.66 12.9297 190.707 12.7188 191.895 12.7031C193.207 12.6875 194.367 12.8438 195.375 13.1719C196.391 13.5 197.266 13.957 198 14.543V18.3867H195.434L194.988 16.043C194.691 15.8555 194.289 15.6914 193.781 15.5508C193.281 15.4102 192.711 15.3398 192.07 15.3398C191.523 15.3398 191.039 15.4219 190.617 15.5859C190.203 15.75 189.875 15.9883 189.633 16.3008C189.391 16.6133 189.27 16.9922 189.27 17.4375C189.27 17.8203 189.375 18.1562 189.586 18.4453C189.797 18.7266 190.148 18.9961 190.641 19.2539C191.141 19.5039 191.828 19.7734 192.703 20.0625C194.586 20.5859 196.012 21.2773 196.98 22.1367C197.957 22.9961 198.445 24.125 198.445 25.5234C198.445 26.4922 198.184 27.332 197.66 28.043C197.137 28.7461 196.402 29.2891 195.457 29.6719C194.512 30.0547 193.406 30.2461 192.141 30.2461Z" fill="#EEEEEE"/>
</svg>
